<svg height="484pt" viewBox="-21 0 484 484" width="484pt" xmlns="http://www.w3.org/2000/svg" xmlns:xlink="http://www.w3.org/1999/xlink"><linearGradient id="lg1"><stop offset="0" stop-color="#00efd1"/><stop offset="1" stop-color="#00acea"/></linearGradient><linearGradient id="linear0" gradientUnits="userSpaceOnUse" x1="142.357" x2="142.357" xlink:href="#lg1" y1="25.713" y2="468.753"/><linearGradient id="linear1" gradientUnits="userSpaceOnUse" x1="142.571" x2="142.571" xlink:href="#lg1" y1="25.713" y2="468.753"/><linearGradient id="linear2" gradientUnits="userSpaceOnUse" x1="179" x2="179" xlink:href="#lg1" y1="25.713" y2="468.753"/><linearGradient id="linear3" gradientUnits="userSpaceOnUse" x1="409.5" x2="409.5" xlink:href="#lg1" y1="25.713" y2="468.753"/><linearGradient id="linear4" gradientUnits="userSpaceOnUse" x1="398.406" x2="398.406" xlink:href="#lg1" y1="25.713" y2="468.753"/><path d="m108.320312 49h68.074219c3.3125 0 6-2.6875 6-6s-2.6875-6-6-6h-68.074219c-3.3125 0-6 2.6875-6 6s2.6875 6 6 6zm0 0" fill="url(#linear0)"/><path d="m142.570312 403.558594c-14.878906 0-26.945312 12.066406-26.945312 26.945312 0 14.882813 12.066406 26.945313 26.945312 26.945313 14.882813 0 26.945313-12.0625 26.945313-26.945313-.015625-14.875-12.070313-26.925781-26.945313-26.945312zm0 41.890625c-8.253906 0-14.945312-6.691407-14.945312-14.945313s6.691406-14.945312 14.945312-14.945312c8.253907 0 14.945313 6.691406 14.945313 14.945312-.007813 8.25-6.695313 14.9375-14.945313 14.945313zm0 0" fill="url(#linear1)"/><path d="m336.300781 164-20.300781-2.253906v-39.617188c-.015625-1.949218-.972656-3.773437-2.570312-4.894531-1.6875-1.128906-3.800782-1.410156-5.726563-.765625l-23.703125 8.21875v-78.320312c0-25.363282-20.136719-46.367188-45.5-46.367188h-192.285156c-25.363282 0-46.214844 21.003906-46.214844 46.367188v391.265624c0 25.367188 20.851562 46.367188 46.214844 46.367188h192.285156c25.363281 0 45.5-21 45.5-46.367188v-163.652343l23.683594 8.21875c.679687.222656 1.394531.335937 2.109375.335937 1.277343 0 2.523437-.382812 3.574219-1.105468 1.613281-1.113282 2.59375-2.933594 2.632812-4.894532v-42.097656l20.300781-2.25c12.4375-1.375 21.816407-11.945312 21.699219-24.457031v-19.277344c.113281-12.511719-9.261719-23.078125-21.699219-24.453125zm-290.085937-152h192.285156c18.746094 0 33.5 15.621094 33.5 34.367188v32.632812h-260v-32.632812c.09375-18.878907 15.332031-34.1875 34.214844-34.367188zm192.285156 460h-192.285156c-18.882813-.179688-34.121094-15.488281-34.214844-34.367188v-48.632812h260v48.632812c0 18.746094-14.753906 34.367188-33.5 34.367188zm33.5-95h-260v-286h260v37.894531l-76.355469 27.105469h-57.320312c-4.042969-.03125-7.933594 1.550781-10.808594 4.394531-2.875 2.839844-4.5 6.710938-4.515625 10.753907v56.367187c-.167969 6.820313 4.390625 12.855469 11 14.558594v57.796875c0 3.3125 2.324219 6.128906 5.636719 6.128906h32.308593c2.65625.011719 5-1.730469 5.753907-4.277344l17.335937-58.722656h.609375l76.355469 26.769531zm-81-146h-52.675781c-1.863281-.085938-3.328125-1.621094-3.324219-3.484375v-56.367187c.011719-.859376.371094-1.679688 1-2.273438.625-.59375 1.460938-.910156 2.324219-.875h52.675781zm-45 12h36.523438l-15.0625 51h-21.460938zm57-10.4375v-66.460938l101-35.511718v137.484375zm143-24.832031c.109375 6.386719-4.65625 11.8125-11.007812 12.527343l-18.992188 2.105469v-48.542969l18.992188 2.105469c6.347656.714844 11.113281 6.140625 11.007812 12.527344zm0 0" fill="url(#linear2)"/><path d="m436 195h-53c-3.3125 0-6 2.6875-6 6s2.6875 6 6 6h53c3.3125 0 6-2.6875 6-6s-2.6875-6-6-6zm0 0" fill="url(#linear3)"/><g fill="url(#linear4)"><path d="m378.898438 172c.503906 0 1.007812-.0625 1.496093-.1875l39-10c2.082031-.527344 3.726563-2.128906 4.308594-4.195312.582031-2.070313.011719-4.292969-1.492187-5.824219-1.507813-1.535157-3.71875-2.148438-5.796876-1.605469l-39 10c-2.929687.75-4.84375 3.5625-4.46875 6.5625.378907 3 2.929688 5.25 5.953126 5.25zm0 0"/><path d="m419.398438 238.1875-39-10c-2.078126-.542969-4.289063.070312-5.792969 1.605469-1.507813 1.535156-2.074219 3.753906-1.496094 5.824219.582031 2.070312 2.226563 3.667968 4.3125 4.195312l39 10c3.203125.808594 6.457031-1.128906 7.277344-4.328125.820312-3.203125-1.101563-6.464844-4.300781-7.296875zm0 0"/></g></svg>